<svg width="48" height="48" viewBox="0 0 48 48" fill="none" xmlns="http://www.w3.org/2000/svg">
<path d="M22.6392 6H10.1792C6.19922 6 4.19922 8.02 4.19922 12.04V44H14.9992V36.5C14.9992 35.68 15.6792 35 16.4992 35C17.3192 35 17.9992 35.66 17.9992 36.5V44H28.5992V12.04C28.5992 8.02 26.6192 6 22.6392 6ZM21.4992 25.5H11.5992C10.7792 25.5 10.0992 24.82 10.0992 24C10.0992 23.18 10.7792 22.5 11.5992 22.5H21.4992C22.3192 22.5 22.9992 23.18 22.9992 24C22.9992 24.82 22.3192 25.5 21.4992 25.5ZM21.4992 18H11.5992C10.7792 18 10.0992 17.32 10.0992 16.5C10.0992 15.68 10.7792 15 11.5992 15H21.4992C22.3192 15 22.9992 15.68 22.9992 16.5C22.9992 17.32 22.3192 18 21.4992 18Z" fill="#B29370"/>
<path d="M46 42.5002H41.46V36.5002C43.36 35.8802 44.74 34.1002 44.74 32.0002V28.0002C44.74 25.3802 42.6 23.2402 39.98 23.2402C37.36 23.2402 35.22 25.3802 35.22 28.0002V32.0002C35.22 34.0802 36.58 35.8402 38.44 36.4802V42.5002H2C1.18 42.5002 0.5 43.1802 0.5 44.0002C0.5 44.8202 1.18 45.5002 2 45.5002H39.86C39.9 45.5002 39.92 45.5202 39.96 45.5202C40 45.5202 40.02 45.5002 40.06 45.5002H46C46.82 45.5002 47.5 44.8202 47.5 44.0002C47.5 43.1802 46.82 42.5002 46 42.5002Z" fill="#B29370"/>
</svg>
