<svg width="48" height="48" viewBox="0 0 48 48" fill="none" xmlns="http://www.w3.org/2000/svg">
<path d="M33.5005 7.12V4C33.5005 3.18 32.8205 2.5 32.0005 2.5C31.1805 2.5 30.5005 3.18 30.5005 4V7H17.5005V4C17.5005 3.18 16.8205 2.5 16.0005 2.5C15.1805 2.5 14.5005 3.18 14.5005 4V7.12C9.10046 7.62 6.48046 10.84 6.08046 15.62C6.04046 16.2 6.52046 16.68 7.08046 16.68H40.9205C41.5005 16.68 41.9805 16.18 41.9205 15.62C41.5205 10.84 38.9005 7.62 33.5005 7.12Z" fill="#B29370"/>
<path d="M40 19.6802H8C6.9 19.6802 6 20.5802 6 21.6802V34.0002C6 40.0002 9 44.0002 16 44.0002H32C39 44.0002 42 40.0002 42 34.0002V21.6802C42 20.5802 41.1 19.6802 40 19.6802ZM18.42 36.4202C18.32 36.5002 18.22 36.6002 18.12 36.6602C18 36.7402 17.88 36.8002 17.76 36.8402C17.64 36.9002 17.52 36.9402 17.4 36.9602C17.26 36.9802 17.14 37.0002 17 37.0002C16.74 37.0002 16.48 36.9402 16.24 36.8402C15.98 36.7402 15.78 36.6002 15.58 36.4202C15.22 36.0402 15 35.5202 15 35.0002C15 34.4802 15.22 33.9602 15.58 33.5802C15.78 33.4002 15.98 33.2602 16.24 33.1602C16.6 33.0002 17 32.9602 17.4 33.0402C17.52 33.0602 17.64 33.1002 17.76 33.1602C17.88 33.2002 18 33.2602 18.12 33.3402C18.22 33.4202 18.32 33.5002 18.42 33.5802C18.78 33.9602 19 34.4802 19 35.0002C19 35.5202 18.78 36.0402 18.42 36.4202ZM18.42 29.4202C18.04 29.7802 17.52 30.0002 17 30.0002C16.48 30.0002 15.96 29.7802 15.58 29.4202C15.22 29.0402 15 28.5202 15 28.0002C15 27.4802 15.22 26.9602 15.58 26.5802C16.14 26.0202 17.02 25.8402 17.76 26.1602C18.02 26.2602 18.24 26.4002 18.42 26.5802C18.78 26.9602 19 27.4802 19 28.0002C19 28.5202 18.78 29.0402 18.42 29.4202ZM25.42 36.4202C25.04 36.7802 24.52 37.0002 24 37.0002C23.48 37.0002 22.96 36.7802 22.58 36.4202C22.22 36.0402 22 35.5202 22 35.0002C22 34.4802 22.22 33.9602 22.58 33.5802C23.32 32.8402 24.68 32.8402 25.42 33.5802C25.78 33.9602 26 34.4802 26 35.0002C26 35.5202 25.78 36.0402 25.42 36.4202ZM25.42 29.4202C25.32 29.5002 25.22 29.5802 25.12 29.6602C25 29.7402 24.88 29.8002 24.76 29.8402C24.64 29.9002 24.52 29.9402 24.4 29.9602C24.26 29.9802 24.14 30.0002 24 30.0002C23.48 30.0002 22.96 29.7802 22.58 29.4202C22.22 29.0402 22 28.5202 22 28.0002C22 27.4802 22.22 26.9602 22.58 26.5802C22.76 26.4002 22.98 26.2602 23.24 26.1602C23.98 25.8402 24.86 26.0202 25.42 26.5802C25.78 26.9602 26 27.4802 26 28.0002C26 28.5202 25.78 29.0402 25.42 29.4202ZM32.42 36.4202C32.04 36.7802 31.52 37.0002 31 37.0002C30.48 37.0002 29.96 36.7802 29.58 36.4202C29.22 36.0402 29 35.5202 29 35.0002C29 34.4802 29.22 33.9602 29.58 33.5802C30.32 32.8402 31.68 32.8402 32.42 33.5802C32.78 33.9602 33 34.4802 33 35.0002C33 35.5202 32.78 36.0402 32.42 36.4202ZM32.42 29.4202C32.32 29.5002 32.22 29.5802 32.12 29.6602C32 29.7402 31.88 29.8002 31.76 29.8402C31.64 29.9002 31.52 29.9402 31.4 29.9602C31.26 29.9802 31.12 30.0002 31 30.0002C30.48 30.0002 29.96 29.7802 29.58 29.4202C29.22 29.0402 29 28.5202 29 28.0002C29 27.4802 29.22 26.9602 29.58 26.5802C29.78 26.4002 29.98 26.2602 30.24 26.1602C30.6 26.0002 31 25.9602 31.4 26.0402C31.52 26.0602 31.64 26.1002 31.76 26.1602C31.88 26.2002 32 26.2602 32.12 26.3402C32.22 26.4202 32.32 26.5002 32.42 26.5802C32.78 26.9602 33 27.4802 33 28.0002C33 28.5202 32.78 29.0402 32.42 29.4202Z" fill="#B29370"/>
</svg>
