<svg width="48" height="48" viewBox="0 0 48 48" fill="none" xmlns="http://www.w3.org/2000/svg">
<path d="M43.9979 33V39C43.9979 41.76 41.7579 44 38.9979 44H24.7179C22.9379 44 22.0579 41.86 23.2979 40.6L35.0379 28.6C35.4179 28.22 35.9379 28 36.4579 28H38.9979C41.7579 28 43.9979 30.24 43.9979 33Z" fill="#B29370"/>
<path d="M36.7405 22.58L31.3205 28L26.4005 32.9C25.1405 34.16 22.9805 33.28 22.9805 31.5C22.9805 25.08 22.9805 14.52 22.9805 14.52C22.9805 13.98 23.2005 13.48 23.5605 13.1L25.4005 11.26C27.3605 9.30004 30.5205 9.30004 32.4805 11.26L36.7205 15.5C38.7005 17.46 38.7005 20.62 36.7405 22.58Z" fill="#B29370"/>
<path d="M15 4H9C6 4 4 6 4 9V36C4 36.54 4.06 37.08 4.16 37.6C4.22 37.86 4.28 38.12 4.36 38.38C4.46 38.68 4.56 38.98 4.68 39.26C4.7 39.28 4.7 39.3 4.7 39.3C4.72 39.3 4.72 39.3 4.7 39.32C4.98 39.88 5.3 40.42 5.68 40.92C5.9 41.18 6.12 41.42 6.34 41.66C6.56 41.9 6.8 42.1 7.06 42.3L7.08 42.32C7.58 42.7 8.12 43.02 8.68 43.3C8.7 43.28 8.7 43.28 8.7 43.3C9 43.44 9.3 43.54 9.62 43.64C9.88 43.72 10.14 43.78 10.4 43.84C10.92 43.94 11.46 44 12 44C12.82 44 13.66 43.88 14.44 43.62C14.66 43.54 14.88 43.46 15.1 43.36C15.8 43.08 16.48 42.68 17.08 42.16C17.26 42.02 17.46 41.84 17.64 41.66L17.72 41.58C19.12 40.14 20 38.16 20 36V9C20 6 18 4 15 4ZM12 39C10.34 39 9 37.66 9 36C9 34.34 10.34 33 12 33C13.66 33 15 34.34 15 36C15 37.66 13.66 39 12 39Z" fill="#B29370"/>
</svg>
