<svg width="48" height="48" viewBox="0 0 48 48" fill="none" xmlns="http://www.w3.org/2000/svg">
<path d="M32.38 4H15.62C8.34 4 4 8.34 4 15.62V32.36C4 39.66 8.34 44 15.62 44H32.36C39.64 44 43.98 39.66 43.98 32.38V15.62C44 8.34 39.66 4 32.38 4ZM22.06 35.32C22.64 35.9 22.64 36.86 22.06 37.44C21.76 37.74 21.38 37.88 21 37.88C20.62 37.88 20.24 37.74 19.94 37.44L16.5 34L13.06 37.44C12.76 37.72 12.38 37.88 12 37.88C11.62 37.88 11.24 37.74 10.94 37.44C10.36 36.86 10.36 35.9 10.94 35.32L14.38 31.88L10.94 28.44C10.36 27.86 10.36 26.9 10.94 26.32C11.52 25.74 12.48 25.74 13.06 26.32L16.5 29.76L19.94 26.32C20.52 25.74 21.48 25.74 22.06 26.32C22.64 26.9 22.64 27.86 22.06 28.44L18.62 31.88L22.06 35.32ZM21 17.62H12C11.18 17.62 10.5 16.94 10.5 16.12C10.5 15.3 11.18 14.62 12 14.62H21C21.82 14.62 22.5 15.3 22.5 16.12C22.5 16.94 21.82 17.62 21 17.62ZM36 37.12H27C26.18 37.12 25.5 36.44 25.5 35.62C25.5 34.8 26.18 34.12 27 34.12H36C36.82 34.12 37.5 34.8 37.5 35.62C37.5 36.44 36.82 37.12 36 37.12ZM36 29.62H27C26.18 29.62 25.5 28.94 25.5 28.12C25.5 27.3 26.18 26.62 27 26.62H36C36.82 26.62 37.5 27.3 37.5 28.12C37.5 28.94 36.82 29.62 36 29.62ZM36 17.62H33.04V20.62C33.04 21.44 32.36 22.12 31.54 22.12C30.72 22.12 30.04 21.44 30.04 20.62V17.62H27C26.18 17.62 25.5 16.94 25.5 16.12C25.5 15.3 26.18 14.62 27 14.62H30.04V11.62C30.04 10.8 30.72 10.12 31.54 10.12C32.36 10.12 33.04 10.8 33.04 11.62V14.62H36C36.82 14.62 37.5 15.3 37.5 16.12C37.5 16.94 36.82 17.62 36 17.62Z" fill="#B29370"/>
</svg>
