<svg width="48" height="48" viewBox="0 0 48 48" fill="none" xmlns="http://www.w3.org/2000/svg">
<path d="M37.0816 8.24018L26.0816 4.12018C24.9416 3.70018 23.0816 3.70018 21.9416 4.12018L10.9416 8.24018C8.82156 9.04018 7.10156 11.5202 7.10156 13.7802V29.9802C7.10156 31.6002 8.16156 33.7402 9.46156 34.7002L20.4616 42.9202C22.4016 44.3802 25.5816 44.3802 27.5216 42.9202L38.5216 34.7002C39.8216 33.7202 40.8816 31.6002 40.8816 29.9802V13.7802C40.9016 11.5202 39.1816 9.04018 37.0816 8.24018ZM30.9616 19.4402L22.3616 28.0402C22.0616 28.3402 21.6816 28.4802 21.3016 28.4802C20.9216 28.4802 20.5416 28.3402 20.2416 28.0402L17.0416 24.8002C16.4616 24.2202 16.4616 23.2602 17.0416 22.6802C17.6216 22.1002 18.5816 22.1002 19.1616 22.6802L21.3216 24.8402L28.8616 17.3002C29.4416 16.7202 30.4016 16.7202 30.9816 17.3002C31.5616 17.8802 31.5616 18.8602 30.9616 19.4402Z" fill="#B29370"/>
</svg>
