<svg width="48" height="48" viewBox="0 0 48 48" fill="none" xmlns="http://www.w3.org/2000/svg">
<path d="M43.1217 21.4801L40.4017 18.3201C39.8817 17.7201 39.4617 16.6001 39.4617 15.8001V12.4001C39.4617 10.2801 37.7217 8.54012 35.6017 8.54012H32.2017C31.4217 8.54012 30.2817 8.12012 29.6817 7.60012L26.5217 4.88012C25.1417 3.70012 22.8817 3.70012 21.4817 4.88012L18.3417 7.62012C17.7417 8.12012 16.6017 8.54012 15.8217 8.54012H12.3617C10.2417 8.54012 8.50172 10.2801 8.50172 12.4001V15.8201C8.50172 16.6001 8.08172 17.7201 7.58172 18.3201L4.88172 21.5001C3.72172 22.8801 3.72172 25.1201 4.88172 26.5001L7.58172 29.6801C8.08172 30.2801 8.50172 31.4001 8.50172 32.1801V35.6001C8.50172 37.7201 10.2417 39.4601 12.3617 39.4601H15.8217C16.6017 39.4601 17.7417 39.8801 18.3417 40.4001L21.5017 43.1201C22.8817 44.3001 25.1417 44.3001 26.5417 43.1201L29.7017 40.4001C30.3017 39.8801 31.4217 39.4601 32.2217 39.4601H35.6217C37.7417 39.4601 39.4817 37.7201 39.4817 35.6001V32.2001C39.4817 31.4201 39.9017 30.2801 40.4217 29.6801L43.1417 26.5201C44.3017 25.1401 44.3017 22.8601 43.1217 21.4801ZM32.3217 20.2201L22.6617 29.8801C22.3817 30.1601 22.0017 30.3201 21.6017 30.3201C21.2017 30.3201 20.8217 30.1601 20.5417 29.8801L15.7017 25.0401C15.1217 24.4601 15.1217 23.5001 15.7017 22.9201C16.2817 22.3401 17.2417 22.3401 17.8217 22.9201L21.6017 26.7001L30.2017 18.1001C30.7817 17.5201 31.7417 17.5201 32.3217 18.1001C32.9017 18.6801 32.9017 19.6401 32.3217 20.2201Z" fill="#B29370"/>
</svg>
