<svg width="48" height="48" viewBox="0 0 48 48" fill="none" xmlns="http://www.w3.org/2000/svg">
<path d="M23.8784 4.41966L19.0584 15.6397H14.2384C13.4384 15.6397 12.6584 15.6997 11.8984 15.8597L13.8984 11.0597L13.9784 10.8797L14.0984 10.5597C14.1584 10.4197 14.1984 10.2997 14.2584 10.1997C16.5784 4.81966 19.1784 3.13966 23.8784 4.41966Z" fill="#B29370"/>
<path d="M37.4544 16.18L37.4144 16.16C36.2144 15.82 34.9944 15.64 33.7544 15.64H21.2344L25.7344 5.18004L25.7944 5.04004C26.0744 5.14004 26.3744 5.28004 26.6744 5.38004L31.0944 7.24004C33.5544 8.26004 35.2744 9.32004 36.3344 10.6C36.5144 10.84 36.6744 11.06 36.8344 11.32C37.0144 11.6 37.1544 11.88 37.2344 12.18C37.3144 12.36 37.3744 12.52 37.4144 12.7C37.7144 13.72 37.7344 14.88 37.4544 16.18Z" fill="#B29370"/>
<path d="M25.0391 35.3202H25.5391C26.1391 35.3202 26.6391 34.7802 26.6391 34.1202C26.6391 33.2802 26.3991 33.1602 25.8791 32.9602L25.0391 32.6602V35.3202Z" fill="#B29370"/>
<path d="M36.5844 19.0396C35.6844 18.7796 34.7444 18.6396 33.7644 18.6396H14.2444C12.8844 18.6396 11.6044 18.8996 10.4044 19.4196C6.92437 20.9196 4.48438 24.3796 4.48438 28.3996V32.2996C4.48438 32.7796 4.52437 33.2397 4.58437 33.7197C5.02437 40.0797 8.42437 43.4797 14.7844 43.8997C15.2444 43.9597 15.7044 43.9996 16.2044 43.9996H31.8044C39.2044 43.9996 43.1044 40.4796 43.4844 33.4796C43.5044 33.0996 43.5244 32.6996 43.5244 32.2996V28.3996C43.5244 23.9796 40.5844 20.2596 36.5844 19.0396ZM26.5644 30.9996C27.4844 31.3196 28.7244 31.9996 28.7244 34.1196C28.7244 35.9396 27.3044 37.3997 25.5444 37.3997H25.0444V37.8396C25.0444 38.4196 24.5844 38.8797 24.0044 38.8797C23.4244 38.8797 22.9644 38.4196 22.9644 37.8396V37.3997H22.7844C20.8644 37.3997 19.2844 35.7796 19.2844 33.7796C19.2844 33.1996 19.7444 32.7397 20.3244 32.7397C20.9044 32.7397 21.3644 33.1996 21.3644 33.7796C21.3644 34.6196 22.0044 35.3196 22.7844 35.3196H22.9644V31.9396L21.4444 31.3996C20.5244 31.0796 19.2844 30.3996 19.2844 28.2796C19.2844 26.4596 20.7044 24.9996 22.4644 24.9996H22.9644V24.5596C22.9644 23.9796 23.4244 23.5196 24.0044 23.5196C24.5844 23.5196 25.0444 23.9796 25.0444 24.5596V24.9996H25.2244C27.1444 24.9996 28.7244 26.6196 28.7244 28.6196C28.7244 29.1996 28.2644 29.6596 27.6844 29.6596C27.1044 29.6596 26.6444 29.1996 26.6444 28.6196C26.6444 27.7796 26.0044 27.0796 25.2244 27.0796H25.0444V30.4596L26.5644 30.9996Z" fill="#B29370"/>
<path d="M21.3594 28.2801C21.3594 29.1201 21.5994 29.2401 22.1194 29.4401L22.9594 29.7401V27.0801H22.4594C21.8394 27.0801 21.3594 27.6201 21.3594 28.2801Z" fill="#B29370"/>
</svg>
