<svg width="27" height="27" viewBox="0 0 27 27" fill="none" xmlns="http://www.w3.org/2000/svg">
<path d="M26.9916 15.7824C26.9916 15.6557 26.9538 15.5334 26.8736 15.4322L22.4987 9.96037V4.50148C22.4987 3.88131 21.9966 3.375 21.3722 3.375H5.62351C5.00334 3.375 4.49703 3.87708 4.49703 4.50148V9.96485L0.122361 15.4322C0.0421456 15.5334 0.00427292 15.66 0.00427292 15.7824H0V23.6547H1.68744L2.81392 22.5283H24.1861L25.3124 23.659H26.9998L27 15.7827L26.9916 15.7824ZM14.3436 6.75002C14.3436 6.43791 14.5966 6.18892 14.9047 6.18892H19.4062C19.7183 6.18892 19.9673 6.44199 19.9673 6.75002V8.99857C19.9673 9.31068 19.7142 9.55967 19.4062 9.55967L14.9047 9.55986C14.5926 9.55986 14.3436 9.30679 14.3436 8.99876V6.75002ZM7.03256 6.75002C7.03256 6.43791 7.28563 6.18892 7.59367 6.18892H12.0952C12.4073 6.18892 12.6563 6.44199 12.6563 6.75002V8.99857C12.6563 9.31068 12.4032 9.55967 12.0952 9.55967L7.59367 9.55986C7.28155 9.55986 7.03256 9.30679 7.03256 8.99876V6.75002ZM5.33255 10.72H21.6635L25.262 15.2215L1.73397 15.2213L5.33255 10.72Z" fill="#707070"/>
</svg>
