<svg width="108" height="30" viewBox="0 0 108 30" fill="none" xmlns="http://www.w3.org/2000/svg">
<path d="M24.3713 7.40964L24.0995 0H0V1.35542C3.26158 1.35542 4.39408 1.98795 4.39408 5.10542V24.4428C4.39408 27.7861 3.66928 28.3283 0 28.3283V29.6837H13.2728V28.3283C9.73945 28.3283 8.56166 27.7861 8.56166 24.7139V15.2259H13.907C17.8028 15.2259 18.7088 15.8133 18.7088 19.4729H20.249V8.99096H18.7088C18.7088 12.6506 17.8028 13.4639 13.907 13.4639H8.56166V2.03313H15.7643C21.6986 2.03313 22.1063 3.11747 22.9217 7.40964H24.3713Z" fill="white"/>
<path d="M32.6268 7.90663H31.5396L25.9224 9.26205V10.5271C25.9224 10.5271 26.4207 10.4367 27.3267 10.4367C28.9575 10.4367 28.9575 11.25 28.9575 12.8765V25.3012C28.9575 27.8313 28.6404 28.3735 25.6506 28.3735V29.6837H36.9756V28.3735C33.5781 28.3735 32.7174 27.9217 32.7174 25.0753V14.7741C33.8046 12.9669 35.2542 11.0693 36.2961 11.0693C36.8397 11.0693 37.7457 12.6054 39.2406 12.6054C40.2372 12.6054 41.2338 11.8825 41.2338 10.1657C41.2338 8.62952 40.3731 7.63554 38.6064 7.63554C36.432 7.63554 35.073 9.21687 32.7627 12.5602H32.6268V7.90663Z" fill="white"/>
<path d="M54.8343 26.8825C55.1061 28.8705 55.5591 29.9096 57.5523 29.9096C59.8626 29.9096 60.9498 28.9608 62.4447 26.7922L61.7652 26.0693C61.131 26.747 60.4968 27.1988 59.6361 27.1988C58.6848 27.1988 58.2771 26.8373 58.2771 24.9849V14.7289C58.2771 10.0301 56.4198 7.77108 51.4821 7.77108C46.5445 7.77108 43.5094 10.2108 43.5094 12.741C43.5094 14.2319 44.506 14.9096 45.412 14.9096C46.6804 14.9096 47.4052 14.2319 47.4052 12.8313C47.4052 10.1205 47.8582 9.17169 50.4403 9.17169C53.1582 9.17169 54.5172 10.6626 54.5172 14.5934V16.5813C50.6214 17.8012 42.6034 18.9759 42.6034 24.9398C42.6034 27.8313 44.506 30 47.9941 30C50.8932 30 52.524 28.7349 54.6531 26.8825H54.8343ZM54.5172 25.5271C52.977 26.7922 51.3462 27.5151 49.8514 27.5151C47.9035 27.5151 46.5898 26.1145 46.5898 23.8554C46.5898 20.3313 50.395 19.1114 54.5172 18.0723V25.5271Z" fill="white"/>
<path d="M84.4363 15.8133C84.4363 10.6175 82.4884 7.77108 78.3662 7.77108C75.5123 7.77108 73.5191 9.39759 71.0729 11.5663H70.8917L70.937 7.90663H69.8951L64.142 9.21687V10.5271C64.142 10.5271 64.595 10.4367 65.3651 10.4367C66.5882 10.4367 67.2677 10.7982 67.2677 12.4247V25.1205C67.2677 27.6506 67.1318 28.4187 64.0967 28.4187V29.6837H74.4704V28.4187C71.2088 28.4187 71.0276 27.6506 71.0276 25.1205V13.509C72.3866 12.2892 74.0627 10.6626 76.5089 10.6626C78.5474 10.6626 80.6764 11.5211 80.6764 16.9428V25.1205C80.6764 27.6506 80.5405 28.4187 77.3243 28.4187V29.6837H87.7885V28.4187C84.7534 28.4187 84.4363 27.6506 84.4363 25.1205V15.8133Z" fill="white"/>
<path d="M108 22.4548H106.505C105.599 26.6566 104.648 27.8313 100.752 27.8313H95.0896V27.6958L107.819 9.62349V8.31325H91.1032L90.8767 14.9548H92.281C92.6887 11.9277 93.4135 10.2108 96.7657 10.2108H102.881V10.3464L90.1519 28.3735V29.6837H107.547L108 22.4548Z" fill="white"/>
</svg>
