<svg width="24" height="24" viewBox="0 0 24 24" fill="none" xmlns="http://www.w3.org/2000/svg">
<path d="M12.0001 17.4178C10.7347 17.4162 9.50882 16.9752 8.53069 16.1699C7.55272 15.3647 6.88266 14.2446 6.63454 13H2V18.7376C2 19.6028 2.34264 20.4327 2.95276 21.0444C3.56266 21.6563 4.39014 22 5.25274 22H18.7473C19.6099 22 20.4373 21.6563 21.0472 21.0444C21.6573 20.4327 22 19.6028 22 18.7376V13H17.3655C17.1173 14.2445 16.4473 15.3646 15.4693 16.1699C14.4912 16.9752 13.2653 17.4161 11.9999 17.4178H12.0001Z" fill="#707070"/>
<path d="M18.7471 2H5.25273C4.38785 1.99916 3.55809 2.34577 2.94756 2.9629C2.33703 3.58022 1.99609 4.41729 2.00003 5.28851V11H6.62843C6.94692 9.30615 8.03435 7.86018 9.56705 7.09316C11.0995 6.32592 12.9005 6.32592 14.433 7.09316C15.9656 7.86018 17.0531 9.3062 17.3716 11H22V5.28851C22.0039 4.41729 21.663 3.58022 21.0524 2.9629C20.4419 2.3458 19.6122 1.9992 18.7473 2H18.7471ZM19.6242 5.51096C19.3341 5.51222 19.0718 5.33692 18.9602 5.06705C18.8486 4.79719 18.9096 4.48603 19.1149 4.27947C19.3201 4.07272 19.6288 4.01107 19.8967 4.12347C20.1646 4.23607 20.3389 4.50027 20.3376 4.79258C20.3376 4.98298 20.2625 5.16582 20.1286 5.30065C19.995 5.43526 19.8135 5.51096 19.6242 5.51096V5.51096Z" fill="#707070"/>
<path d="M12 15C12.6309 14.9989 13.2453 14.7988 13.7569 14.4276C14.2683 14.0565 14.6508 13.5331 14.8503 12.9317C15.0499 12.326 15.0499 11.6717 14.8503 11.0661C14.5831 10.2588 13.9893 9.60234 13.2153 9.25824C12.4413 8.91392 11.5587 8.91392 10.7847 9.25824C10.0106 9.60237 9.41691 10.2588 9.14967 11.0661C8.95011 11.6718 8.95011 12.326 9.14967 12.9317C9.34924 13.5331 9.73173 14.0565 10.2431 14.4276C10.7547 14.7989 11.3691 14.9989 12 15Z" fill="#707070"/>
</svg>
