<svg width="24" height="24" viewBox="0 0 24 24" fill="none" xmlns="http://www.w3.org/2000/svg">
<path d="M21.9783 11.4104C21.6383 5.61044 16.3683 1.14045 10.2983 2.14045C6.11833 2.83045 2.76834 6.22043 2.11834 10.4004C1.73834 12.8204 2.23836 15.1104 3.32836 17.0004L2.43835 20.3104C2.23835 21.0604 2.92833 21.7404 3.66833 21.5304L6.92834 20.6304C8.40834 21.5004 10.1383 22.0004 11.9883 22.0004C17.6283 22.0004 22.3083 17.0304 21.9783 11.4104ZM16.8783 15.7204C16.7883 15.9004 16.6783 16.0704 16.5383 16.2304C16.2883 16.5004 16.0183 16.7004 15.7183 16.8204C15.4183 16.9504 15.0883 17.0104 14.7383 17.0104C14.2283 17.0104 13.6783 16.8905 13.1083 16.6405C12.5283 16.3905 11.9584 16.0604 11.3884 15.6504C10.8084 15.2304 10.2683 14.7604 9.74834 14.2504C9.22834 13.7304 8.76832 13.1804 8.34832 12.6104C7.93832 12.0404 7.60834 11.4704 7.36834 10.9004C7.12834 10.3304 7.00835 9.78045 7.00835 9.26045C7.00835 8.92044 7.06835 8.59044 7.18835 8.29044C7.30835 7.98044 7.49836 7.70045 7.76836 7.45045C8.08836 7.13045 8.43834 6.98045 8.80834 6.98045C8.94834 6.98045 9.08832 7.01044 9.21832 7.07044C9.34832 7.13044 9.46834 7.22044 9.55834 7.35044L10.7183 8.99043C10.8083 9.12043 10.8783 9.23043 10.9183 9.34043C10.9683 9.45043 10.9883 9.55043 10.9883 9.65043C10.9883 9.77043 10.9483 9.89045 10.8783 10.0104C10.8083 10.1304 10.7183 10.2504 10.5983 10.3704L10.2183 10.7704C10.1583 10.8304 10.1384 10.8904 10.1384 10.9704C10.1384 11.0104 10.1483 11.0504 10.1583 11.0904C10.1783 11.1304 10.1884 11.1604 10.1984 11.1904C10.2884 11.3604 10.4483 11.5704 10.6683 11.8304C10.8983 12.0904 11.1384 12.3604 11.3984 12.6204C11.6684 12.8904 11.9284 13.1304 12.1984 13.3604C12.4584 13.5804 12.6783 13.7304 12.8483 13.8204C12.8783 13.8304 12.9083 13.8504 12.9383 13.8604C12.9783 13.8804 13.0184 13.8804 13.0684 13.8804C13.1584 13.8804 13.2184 13.8504 13.2784 13.7904L13.6583 13.4104C13.7883 13.2804 13.9084 13.1904 14.0184 13.1304C14.1384 13.0604 14.2483 13.0204 14.3783 13.0204C14.4783 13.0204 14.5783 13.0404 14.6883 13.0904C14.7983 13.1404 14.9183 13.2004 15.0383 13.2904L16.6984 14.4704C16.8284 14.5604 16.9183 14.6704 16.9783 14.7904C17.0283 14.9204 17.0583 15.0404 17.0583 15.1804C16.9983 15.3504 16.9583 15.5404 16.8783 15.7204Z" fill="#707070"/>
</svg>
